<svg width="512" height="512" viewBox="0 0 512 512" fill="none" xmlns="http://www.w3.org/2000/svg">
<path d="M256 80C247.34 80 239.42 87.36 240 96L248 312C248 314.122 248.843 316.157 250.343 317.657C251.843 319.157 253.878 320 256 320C258.122 320 260.157 319.157 261.657 317.657C263.157 316.157 264 314.122 264 312L272 96C272.58 87.36 264.66 80 256 80Z" stroke="black" stroke-width="32" stroke-linecap="round" stroke-linejoin="round"/>
<path d="M256 432C264.837 432 272 424.837 272 416C272 407.163 264.837 400 256 400C247.163 400 240 407.163 240 416C240 424.837 247.163 432 256 432Z" stroke="black" stroke-width="32" stroke-linecap="round" stroke-linejoin="round"/>
</svg>
